<svg width="85" height="34" viewBox="0 0 85 34" fill="none" xmlns="http://www.w3.org/2000/svg">
<rect width="85" height="34" rx="8" fill="#101828"/>
<path d="M17.758 14.6719C17.7182 14.2997 17.5506 14.0099 17.2551 13.8026C16.9625 13.5952 16.5819 13.4915 16.1131 13.4915C15.7836 13.4915 15.5009 13.5412 15.2651 13.6406C15.0293 13.7401 14.8489 13.875 14.7239 14.0455C14.5989 14.2159 14.535 14.4105 14.5321 14.6293C14.5321 14.8111 14.5733 14.9687 14.6557 15.1023C14.7409 15.2358 14.856 15.3494 15.0009 15.4432C15.1458 15.5341 15.3063 15.6108 15.4824 15.6733C15.6586 15.7358 15.8361 15.7884 16.0151 15.831L16.8333 16.0355C17.1628 16.1122 17.4796 16.2159 17.7836 16.3466C18.0904 16.4773 18.3645 16.642 18.606 16.8409C18.8503 17.0398 19.0435 17.2798 19.1855 17.5611C19.3276 17.8423 19.3986 18.1719 19.3986 18.5497C19.3986 19.0611 19.2679 19.5114 19.0066 19.9006C18.7452 20.2869 18.3674 20.5895 17.873 20.8082C17.3816 21.0241 16.7864 21.1321 16.0875 21.1321C15.4086 21.1321 14.8191 21.027 14.3191 20.8168C13.8219 20.6065 13.4327 20.2997 13.1515 19.8963C12.873 19.4929 12.7225 19.0014 12.6998 18.4219H14.2551C14.2779 18.7259 14.3716 18.9787 14.5364 19.1804C14.7012 19.3821 14.9157 19.5327 15.1799 19.6321C15.4469 19.7315 15.7452 19.7812 16.0748 19.7812C16.4185 19.7812 16.7196 19.7301 16.9782 19.6278C17.2395 19.5227 17.4441 19.3778 17.5918 19.1932C17.7395 19.0057 17.8148 18.7869 17.8176 18.5369C17.8148 18.3097 17.748 18.1222 17.6174 17.9744C17.4867 17.8239 17.3034 17.6989 17.0676 17.5994C16.8347 17.4972 16.562 17.4062 16.2495 17.3267L15.2566 17.071C14.5378 16.8864 13.9696 16.6065 13.552 16.2315C13.1373 15.8537 12.9299 15.3523 12.9299 14.7273C12.9299 14.2131 13.0691 13.7628 13.3475 13.3764C13.6287 12.9901 14.0108 12.6903 14.4938 12.4773C14.9767 12.2614 15.5236 12.1534 16.1344 12.1534C16.7537 12.1534 17.2963 12.2614 17.7623 12.4773C18.231 12.6903 18.5989 12.9872 18.8659 13.3679C19.133 13.7457 19.2708 14.1804 19.2793 14.6719H17.758ZM22.2825 17.1648V21H20.7399V12.2727H22.2484V15.5668H22.3251C22.4785 15.1974 22.7157 14.9062 23.0368 14.6932C23.3606 14.4773 23.7725 14.3693 24.2725 14.3693C24.7271 14.3693 25.1234 14.4645 25.4615 14.6548C25.7995 14.8452 26.0609 15.1236 26.2456 15.4901C26.4331 15.8565 26.5268 16.304 26.5268 16.8324V21H24.9842V17.071C24.9842 16.6307 24.8706 16.2884 24.6433 16.044C24.4189 15.7969 24.1035 15.6733 23.6973 15.6733C23.4245 15.6733 23.1802 15.733 22.9643 15.8523C22.7512 15.9687 22.5836 16.1378 22.4615 16.3594C22.3422 16.581 22.2825 16.8494 22.2825 17.1648ZM29.9828 21.1321C29.568 21.1321 29.1944 21.0582 28.862 20.9105C28.5325 20.7599 28.2711 20.5384 28.0779 20.2457C27.8876 19.9531 27.7924 19.5923 27.7924 19.1634C27.7924 18.794 27.8606 18.4886 27.997 18.2472C28.1333 18.0057 28.3194 17.8125 28.5552 17.6676C28.791 17.5227 29.0566 17.4134 29.3521 17.3395C29.6504 17.2628 29.9586 17.2074 30.2768 17.1733C30.6603 17.1335 30.9714 17.098 31.21 17.0668C31.4487 17.0327 31.622 16.9815 31.7299 16.9134C31.8407 16.8423 31.8961 16.733 31.8961 16.5852V16.5597C31.8961 16.2386 31.801 15.9901 31.6106 15.8139C31.4203 15.6378 31.1461 15.5497 30.7882 15.5497C30.4103 15.5497 30.1106 15.6321 29.889 15.7969C29.6703 15.9616 29.5225 16.1562 29.4458 16.3807L28.0055 16.1761C28.1191 15.7784 28.3066 15.446 28.568 15.179C28.8294 14.9091 29.149 14.7074 29.5268 14.5739C29.9047 14.4375 30.3223 14.3693 30.7797 14.3693C31.095 14.3693 31.4089 14.4062 31.7214 14.4801C32.0339 14.554 32.3194 14.6761 32.5779 14.8466C32.8365 15.0142 33.0439 15.2429 33.2001 15.5327C33.3592 15.8224 33.4387 16.1847 33.4387 16.6193V21H31.9558V20.1009H31.9047C31.8109 20.2827 31.6788 20.4531 31.5083 20.6122C31.3407 20.7685 31.1291 20.8949 30.8734 20.9915C30.6206 21.0852 30.3237 21.1321 29.9828 21.1321ZM30.3833 19.9986C30.693 19.9986 30.9615 19.9375 31.1887 19.8153C31.416 19.6903 31.5907 19.5256 31.7129 19.321C31.8379 19.1165 31.9004 18.8935 31.9004 18.652V17.8807C31.8521 17.9205 31.7697 17.9574 31.6532 17.9915C31.5396 18.0256 31.4118 18.0554 31.2697 18.081C31.1277 18.1065 30.987 18.1293 30.8478 18.1491C30.7086 18.169 30.5879 18.1861 30.4856 18.2003C30.2555 18.2315 30.0495 18.2827 29.8677 18.3537C29.6859 18.4247 29.5424 18.5241 29.4373 18.652C29.3322 18.777 29.2797 18.9389 29.2797 19.1378C29.2797 19.4219 29.3833 19.6364 29.5907 19.7812C29.7981 19.9261 30.0623 19.9986 30.3833 19.9986ZM34.9899 21V14.4545H36.4856V15.5455H36.5538C36.6731 15.1676 36.8777 14.8764 37.1674 14.6719C37.46 14.4645 37.7939 14.3608 38.1689 14.3608C38.2541 14.3608 38.3493 14.3651 38.4544 14.3736C38.5623 14.3793 38.6518 14.3892 38.7228 14.4034V15.8224C38.6575 15.7997 38.5538 15.7798 38.4118 15.7628C38.2725 15.7429 38.1376 15.733 38.0069 15.733C37.7257 15.733 37.4728 15.794 37.2484 15.9162C37.0268 16.0355 36.8521 16.2017 36.7243 16.4148C36.5964 16.6278 36.5325 16.8736 36.5325 17.152V21H34.9899ZM42.3759 21.1278C41.7196 21.1278 41.1529 20.9915 40.6756 20.7188C40.2012 20.4432 39.8361 20.054 39.5804 19.5511C39.3248 19.0455 39.1969 18.4503 39.1969 17.7656C39.1969 17.0923 39.3248 16.5014 39.5804 15.9929C39.839 15.4815 40.1998 15.0838 40.6628 14.7997C41.1259 14.5128 41.6699 14.3693 42.2949 14.3693C42.6983 14.3693 43.079 14.4347 43.437 14.5653C43.7978 14.6932 44.1159 14.892 44.3915 15.1619C44.6699 15.4318 44.8887 15.7756 45.0478 16.1932C45.2069 16.608 45.2864 17.1023 45.2864 17.6761V18.1491H39.9213V17.1094H43.8077C43.8049 16.8139 43.7409 16.5511 43.6159 16.321C43.4909 16.0881 43.3162 15.9048 43.0918 15.7713C42.8702 15.6378 42.6117 15.571 42.3162 15.571C42.0009 15.571 41.7239 15.6477 41.4853 15.8011C41.2466 15.9517 41.0605 16.1506 40.927 16.3977C40.7963 16.642 40.7296 16.9105 40.7267 17.2031V18.1108C40.7267 18.4915 40.7963 18.8182 40.9355 19.0909C41.0748 19.3608 41.2694 19.5682 41.5194 19.7131C41.7694 19.8551 42.062 19.9261 42.3972 19.9261C42.6216 19.9261 42.8248 19.8949 43.0066 19.8324C43.1884 19.767 43.3461 19.6719 43.4796 19.5469C43.6131 19.4219 43.714 19.267 43.7821 19.0824L45.2225 19.2443C45.1316 19.625 44.9583 19.9574 44.7026 20.2415C44.4498 20.5227 44.1259 20.7415 43.731 20.8977C43.3361 21.0511 42.8844 21.1278 42.3759 21.1278ZM49.6362 21V12.2727H51.2172V19.6747H55.0609V21H49.6362ZM56.3649 21V14.4545H57.9075V21H56.3649ZM57.1404 13.5256C56.8961 13.5256 56.6859 13.4446 56.5098 13.2827C56.3336 13.1179 56.2456 12.9205 56.2456 12.6903C56.2456 12.4574 56.3336 12.2599 56.5098 12.098C56.6859 11.9332 56.8961 11.8509 57.1404 11.8509C57.3876 11.8509 57.5978 11.9332 57.7711 12.098C57.9473 12.2599 58.0353 12.4574 58.0353 12.6903C58.0353 12.9205 57.9473 13.1179 57.7711 13.2827C57.5978 13.4446 57.3876 13.5256 57.1404 13.5256ZM61.0364 17.1648V21H59.4938V14.4545H60.9682V15.5668H61.0449C61.1955 15.2003 61.4355 14.9091 61.7651 14.6932C62.0975 14.4773 62.508 14.3693 62.9966 14.3693C63.4483 14.3693 63.8418 14.4659 64.177 14.6591C64.5151 14.8523 64.7765 15.1321 64.9611 15.4986C65.1486 15.8651 65.2409 16.3097 65.2381 16.8324V21H63.6955V17.071C63.6955 16.6335 63.5819 16.2912 63.3546 16.044C63.1301 15.7969 62.8191 15.6733 62.4213 15.6733C62.1515 15.6733 61.9114 15.733 61.7012 15.8523C61.4938 15.9687 61.3304 16.1378 61.2111 16.3594C61.0946 16.581 61.0364 16.8494 61.0364 17.1648ZM68.2125 18.946L68.2083 17.0838H68.4554L70.8077 14.4545H72.6103L69.7168 17.6761H69.3972L68.2125 18.946ZM66.8063 21V12.2727H68.3489V21H66.8063ZM70.9142 21L68.7836 18.0213L69.8233 16.9347L72.7594 21H70.9142Z" fill="white"/>
</svg>
